{"title":"David Attenborough's The Hunt - S01E07 - Living With Predators","uid":15538942,"size":422053135,"categoryP":"video","categoryS":"tv_shows","magnet":"?xt=urn:btih:6b3a274284a15c6ac1270b5e69f9ea7095fe56c9&amp;dn=David+Attenborough%27s+The+Hunt+-+S01E07+-+Living+With+Predators&amp;tr=udp%3A%2F%2Ftracker.leechers-paradise.org%3A6969&amp;tr=udp%3A%2F%2Fzer0day.ch%3A1337&amp;tr=udp%3A%2F%2Fopen.demonii.com%3A1337&amp;tr=udp%3A%2F%2Ftracker.coppersurfer.tk%3A6969&amp;tr=udp%3A%2F%2Fexodus.desync.com%3A6969","seeders":21,"leechers":4,"uploader":"Bullrout","files":1,"time":1470908691,"description":"David Attenborough's The Hunt - S01E07 - Living With Predators\r\n\r\nThe final episode of the series visits the frontline of the conflict with the world's top predators, meeting the scientists fighting to save them. Crossing five continents and combining landmark natural history footage with real-life human drama, it checks the pulse of the earth's iconic animals, including lions, tigers, polar bears and blue whales. With three-quarters of the planet's carnivores now in decline, can people find ways to live with predators before they disappear forever?\r\n\r\nComplete name                            : David Attenborough's The Hunt - S01E07 - Living With Predators.mp4\r\nFormat                                   : MPEG-4\r\nFormat profile                           : Base Media / Version 2\r\nCodec ID                                 : mp42 (mp42/isom/avc1)\r\nFile size                                : 403 MiB\r\nDuration                                 : 50mn 22s\r\nOverall bit rate mode                    : Variable\r\nOverall bit rate                         : 1 117 Kbps\r\nWriting application                      : TMPGEnc Video Mastering Works 5 Version. 5.0.5.32\r\nVideo\r\nID                                       : 2\r\nFormat                                   : AVC\r\nFormat/Info                              : Advanced Video Codec\r\nFormat profile                           :   \r\nFormat settings, CABAC                   : Yes\r\nFormat settings, ReFrames                : 3 frames\r\nCodec ID                                 : avc1\r\nCodec ID/Info                            : Advanced Video Coding\r\nDuration                                 : 50mn 22s\r\nBit rate mode                            : Variable\r\nBit rate                                 : 986 Kbps\r\nMaximum bit rate                         : 1 000 Kbps\r\nWidth                                    : 720 pixels\r\nHeight                                   : 404 pixels\r\nDisplay aspect ratio                     : 16:9\r\nOriginal display aspect ratio            : 16:9\r\nFrame rate mode                          : Constant\r\nFrame rate                               : 25.000 fps\r\nStandard                                 : PAL\r\nColor space                              : YUV\r\nChroma subsampling                       : 4:2:0\r\nBit depth                                : 8 bits\r\nScan type                                : Progressive\r\nBits/(Pixel*Frame)                       : 0.136\r\nStream size                              : 355 MiB (88%)\r\nWriting library                          : x264 core 112\r\nColor range                              : Limited\r\nColor primaries                          : BT.601 PAL\r\nTransfer characteristics                 : BT.470 System B, BT.470 System G\r\nMatrix coefficients                      : BT.601\r\n\r\nAudio\r\nID                                       : 1\r\nFormat                                   : AAC\r\nFormat/Info                              : Advanced Audio Codec\r\nFormat profile                           : LC\r\nCodec ID                                 : 40\r\nDuration                                 : 50mn 22s\r\nBit rate mode                            : Variable\r\nBit rate                                 : 128 Kbps\r\nMaximum bit rate                         : 576 Kbps\r\nChannel(s)                               : 2 channels\r\nChannel positions                        : Front: L R\r\nSampling rate                            : 48.0 KHz\r\nFrame rate                               : 46.875 fps (1024 spf)\r\nCompression mode                         : Lossy\r\nStream size                              : 46.1 MiB (11%)","torrent":{"xt":"urn:btih:6b3a274284a15c6ac1270b5e69f9ea7095fe56c9","amp;dn":"David+Attenborough%27s+The+Hunt+-+S01E07+-+Living+With+Predators","amp;tr":["udp%3A%2F%2Ftracker.leechers-paradise.org%3A6969","udp%3A%2F%2Fzer0day.ch%3A1337","udp%3A%2F%2Fopen.demonii.com%3A1337","udp%3A%2F%2Ftracker.coppersurfer.tk%3A6969","udp%3A%2F%2Fexodus.desync.com%3A6969"],"infoHash":"6b3a274284a15c6ac1270b5e69f9ea7095fe56c9","infoHashBuffer":{"type":"Buffer","data":[107,58,39,66,132,161,92,106,193,39,11,94,105,249,234,112,149,254,86,201]},"announce":[],"urlList":[]}}